<svg xmlns="http://www.w3.org/2000/svg" width="600" height="840" viewBox="0 0 600 840"><defs><linearGradient id="sky" x2=".6" y2="1"><stop stop-color="#25223e"/><stop offset="1" stop-color="#55537a"/></linearGradient><pattern id="hatch" width="7" height="7" patternUnits="userSpaceOnUse"><path d="M0 7L7 0" stroke="#c4c5ed" opacity=".07"/></pattern></defs><path fill="url(#sky)" d="M0 0h600v840H0z"/><circle cx="23" cy="38" r="1" fill="#c4c5ed" opacity=".6"/><circle cx="106" cy="95" r="2" fill="#c4c5ed" opacity=".6"/><circle cx="189" cy="152" r="3" fill="#c4c5ed" opacity=".6"/><circle cx="272" cy="209" r="1" fill="#c4c5ed" opacity=".6"/><circle cx="355" cy="266" r="2" fill="#c4c5ed" opacity=".6"/><circle cx="438" cy="323" r="3" fill="#c4c5ed" opacity=".6"/><circle cx="521" cy="380" r="1" fill="#c4c5ed" opacity=".6"/><circle cx="4" cy="27" r="2" fill="#c4c5ed" opacity=".6"/><circle cx="87" cy="84" r="3" fill="#c4c5ed" opacity=".6"/><circle cx="170" cy="141" r="1" fill="#c4c5ed" opacity=".6"/><circle cx="253" cy="198" r="2" fill="#c4c5ed" opacity=".6"/><circle cx="336" cy="255" r="3" fill="#c4c5ed" opacity=".6"/><circle cx="419" cy="312" r="1" fill="#c4c5ed" opacity=".6"/><circle cx="502" cy="369" r="2" fill="#c4c5ed" opacity=".6"/><circle cx="585" cy="16" r="3" fill="#c4c5ed" opacity=".6"/><circle cx="68" cy="73" r="1" fill="#c4c5ed" opacity=".6"/><circle cx="151" cy="130" r="2" fill="#c4c5ed" opacity=".6"/><circle cx="234" cy="187" r="3" fill="#c4c5ed" opacity=".6"/><circle cx="317" cy="244" r="1" fill="#c4c5ed" opacity=".6"/><circle cx="400" cy="301" r="2" fill="#c4c5ed" opacity=".6"/><circle cx="483" cy="358" r="3" fill="#c4c5ed" opacity=".6"/><circle cx="566" cy="5" r="1" fill="#c4c5ed" opacity=".6"/><circle cx="49" cy="62" r="2" fill="#c4c5ed" opacity=".6"/><circle cx="132" cy="119" r="3" fill="#c4c5ed" opacity=".6"/><circle cx="215" cy="176" r="1" fill="#c4c5ed" opacity=".6"/><circle cx="298" cy="233" r="2" fill="#c4c5ed" opacity=".6"/><circle cx="381" cy="290" r="3" fill="#c4c5ed" opacity=".6"/><circle cx="464" cy="347" r="1" fill="#c4c5ed" opacity=".6"/><circle cx="547" cy="404" r="2" fill="#c4c5ed" opacity=".6"/><circle cx="30" cy="51" r="3" fill="#c4c5ed" opacity=".6"/><circle cx="113" cy="108" r="1" fill="#c4c5ed" opacity=".6"/><circle cx="196" cy="165" r="2" fill="#c4c5ed" opacity=".6"/><circle cx="279" cy="222" r="3" fill="#c4c5ed" opacity=".6"/><circle cx="362" cy="279" r="1" fill="#c4c5ed" opacity=".6"/><circle cx="445" cy="336" r="2" fill="#c4c5ed" opacity=".6"/><circle cx="528" cy="393" r="3" fill="#c4c5ed" opacity=".6"/><circle cx="11" cy="40" r="1" fill="#c4c5ed" opacity=".6"/><circle cx="94" cy="97" r="2" fill="#c4c5ed" opacity=".6"/><circle cx="177" cy="154" r="3" fill="#c4c5ed" opacity=".6"/><circle cx="260" cy="211" r="1" fill="#c4c5ed" opacity=".6"/><circle cx="350" cy="220" r="107" fill="#c4c5ed"/><path d="M0 410Q160 260 340 398T650 365V650H0Z" fill="#55537a"/><path d="M0 510L180 350 320 500 460 370 600 460V670H0Z" fill="#25223e" opacity=".5"/><path d="M0 700V402h30V700Z" fill="#25223e"/><path d="M9 452h5v12h-5Z" fill="#c4c5ed" opacity=".5"/><path d="M39 700V465h69V700Z" fill="#25223e"/><path d="M48 545h5v12h-5Z" fill="#c4c5ed" opacity=".5"/><path d="M78 700V528h68V700Z" fill="#25223e"/><path d="M87 458h5v12h-5Z" fill="#c4c5ed" opacity=".5"/><path d="M117 700V381h67V700Z" fill="#25223e"/><path d="M126 551h5v12h-5Z" fill="#c4c5ed" opacity=".5"/><path d="M156 700V444h66V700Z" fill="#25223e"/><path d="M165 464h5v12h-5Z" fill="#c4c5ed" opacity=".5"/><path d="M195 700V507h65V700Z" fill="#25223e"/><path d="M204 557h5v12h-5Z" fill="#c4c5ed" opacity=".5"/><path d="M234 700V360h64V700Z" fill="#25223e"/><path d="M243 470h5v12h-5Z" fill="#c4c5ed" opacity=".5"/><path d="M273 700V423h63V700Z" fill="#25223e"/><path d="M282 563h5v12h-5Z" fill="#c4c5ed" opacity=".5"/><path d="M312 700V486h62V700Z" fill="#25223e"/><path d="M321 476h5v12h-5Z" fill="#c4c5ed" opacity=".5"/><path d="M351 700V549h61V700Z" fill="#25223e"/><path d="M360 569h5v12h-5Z" fill="#c4c5ed" opacity=".5"/><path d="M390 700V402h60V700Z" fill="#25223e"/><path d="M399 482h5v12h-5Z" fill="#c4c5ed" opacity=".5"/><path d="M429 700V465h59V700Z" fill="#25223e"/><path d="M438 395h5v12h-5Z" fill="#c4c5ed" opacity=".5"/><path d="M468 700V528h58V700Z" fill="#25223e"/><path d="M477 488h5v12h-5Z" fill="#c4c5ed" opacity=".5"/><path d="M507 700V381h57V700Z" fill="#25223e"/><path d="M516 401h5v12h-5Z" fill="#c4c5ed" opacity=".5"/><path d="M546 700V444h56V700Z" fill="#25223e"/><path d="M555 494h5v12h-5Z" fill="#c4c5ed" opacity=".5"/><path d="M585 700V507h55V700Z" fill="#25223e"/><path d="M594 407h5v12h-5Z" fill="#c4c5ed" opacity=".5"/><path d="M0 703L600 600V840H0Z" fill="#25223e"/><path d="M0 717L600 615M0 736L600 634" stroke="#c4c5ed" stroke-width="3" opacity=".5"/><path d="M45 715V609M152 694V589M486 637V531M560 624V518M35 612L590 518" stroke="#25223e" stroke-width="8"/><path d="M70 108Q300 174 610 56M-20 137Q280 219 620 89" fill="none" stroke="#c4c5ed" stroke-width="2" opacity=".4"/>
<g transform="translate(32,0)"><path d="M237 565L194 766 241 775 284 635 299 792 344 790 331 567Z" fill="#101b24" stroke="#c4c5ed" stroke-width="2"/><path d="M222 431Q257 399 301 428L350 582Q278 623 199 570Z" fill="#c4c5ed"/><path d="M226 442L193 474 173 579 195 590 239 500M302 435L344 469 379 560 361 575 317 494" fill="#55537a" stroke="#25223e" stroke-width="5"/><path d="M239 432V403H287V436" fill="#efd2b1"/><path d="M224 345Q266 313 306 354L296 404Q273 438 238 406Z" fill="#efd2b1"/><path d="M222 387L206 352 225 311 251 306 273 286 291 311 320 320 315 365 300 390 288 350 267 373 268 344 242 374 239 349Z" fill="#25223e"/><path d="M273 390l13 -2M253 390l9 1" stroke="#25223e" stroke-width="3"/><path d="M230 444L293 472 321 457 360 461 334 482 291 499 223 466Z" fill="#55537a"/><path d="M299 477Q377 485 425 428L411 469 458 453Q407 523 311 496Z" fill="#c4c5ed"/><path d="M218 502L296 520 310 578 233 569Z" fill="#25223e" opacity=".45"/><path d="M243 447L287 459M207 554L249 565M285 600L264 717M321 648L333 765" fill="none" stroke="#25223e" stroke-width="3"/></g><path d="M0 0h600v840H0Z" fill="url(#hatch)"/><path d="M20 20h560v800H20Z" fill="none" stroke="#c4c5ed" opacity=".4"/><text x="40" y="70" fill="#c4c5ed" font-family="sans-serif" font-size="12" letter-spacing="5">FUU ORIGINAL / 03</text></svg>